{
    "asset" : {
        "generator" : "Khronos glTF Blender I/O v1.3.48",
        "version" : "2.0"
    },
    "scene" : 0,
    "scenes" : [
        {
            "name" : "Scene",
            "nodes" : [
                0
            ]
        }
    ],
    "nodes" : [
        {
            "mesh" : 0,
            "name" : "Cylinder.001",
            "scale" : [
                0.11642450094223022,
                0.11642450094223022,
                0.11642450094223022
            ],
            "translation" : [
                0,
                -1.0884183645248413,
                0
            ]
        }
    ],
    "materials" : [
        {
            "doubleSided" : true,
            "emissiveFactor" : [
                0,
                0,
                0
            ],
            "name" : "Material.004",
            "pbrMetallicRoughness" : {
                "baseColorFactor" : [
                    0.800000011920929,
                    0.800000011920929,
                    0.800000011920929,
                    1
                ],
                "metallicFactor" : 0,
                "roughnessFactor" : 0.5
            }
        },
        {
            "doubleSided" : true,
            "emissiveFactor" : [
                0,
                0,
                0
            ],
            "name" : "Material.003",
            "pbrMetallicRoughness" : {
                "baseColorFactor" : [
                    0.2161431461572647,
                    0.40031880140304565,
                    0.6866856217384338,
                    1
                ],
                "metallicFactor" : 0,
                "roughnessFactor" : 0.5
            }
        },
        {
            "doubleSided" : true,
            "emissiveFactor" : [
                0,
                0,
                0
            ],
            "name" : "Material.001",
            "pbrMetallicRoughness" : {
                "baseColorFactor" : [
                    0.39311447739601135,
                    0.39311447739601135,
                    0.39311447739601135,
                    1
                ],
                "metallicFactor" : 0,
                "roughnessFactor" : 0.5
            }
        },
        {
            "doubleSided" : true,
            "emissiveFactor" : [
                0,
                0,
                0
            ],
            "name" : "Material.005",
            "pbrMetallicRoughness" : {
                "baseColorFactor" : [
                    0.5070686936378479,
                    0.5070686936378479,
                    0.5070686936378479,
                    1
                ],
                "metallicFactor" : 0,
                "roughnessFactor" : 0.5
            }
        },
        {
            "doubleSided" : true,
            "emissiveFactor" : [
                0,
                0,
                0
            ],
            "name" : "Material",
            "pbrMetallicRoughness" : {
                "baseColorFactor" : [
                    1,
                    1,
                    1,
                    1
                ],
                "metallicFactor" : 0,
                "roughnessFactor" : 0.4000000059604645
            }
        },
        {
            "doubleSided" : true,
            "emissiveFactor" : [
                0,
                0,
                0
            ],
            "name" : "Material.002",
            "pbrMetallicRoughness" : {
                "baseColorFactor" : [
                    0.012216928415000439,
                    0.012216928415000439,
                    0.012216928415000439,
                    1
                ],
                "metallicFactor" : 0,
                "roughnessFactor" : 0.5
            }
        }
    ],
    "meshes" : [
        {
            "name" : "Cylinder.003",
            "primitives" : [
                {
                    "attributes" : {
                        "POSITION" : 0,
                        "NORMAL" : 1,
                        "TEXCOORD_0" : 2
                    },
                    "indices" : 3,
                    "material" : 0
                },
                {
                    "attributes" : {
                        "POSITION" : 4,
                        "NORMAL" : 5,
                        "TEXCOORD_0" : 6
                    },
                    "indices" : 7,
                    "material" : 1
                },
                {
                    "attributes" : {
                        "POSITION" : 8,
                        "NORMAL" : 9,
                        "TEXCOORD_0" : 10
                    },
                    "indices" : 11,
                    "material" : 2
                },
                {
                    "attributes" : {
                        "POSITION" : 12,
                        "NORMAL" : 13,
                        "TEXCOORD_0" : 14
                    },
                    "indices" : 15,
                    "material" : 3
                },
                {
                    "attributes" : {
                        "POSITION" : 16,
                        "NORMAL" : 17,
                        "TEXCOORD_0" : 18
                    },
                    "indices" : 19,
                    "material" : 4
                },
                {
                    "attributes" : {
                        "POSITION" : 20,
                        "NORMAL" : 21,
                        "TEXCOORD_0" : 22
                    },
                    "indices" : 23,
                    "material" : 5
                }
            ]
        }
    ],
    "accessors" : [
        {
            "bufferView" : 0,
            "componentType" : 5126,
            "count" : 54,
            "max" : [
                0.9848077893257141,
                1,
                0.9396926760673523
            ],
            "min" : [
                -0.9848077297210693,
                -1,
                -1
            ],
            "type" : "VEC3"
        },
        {
            "bufferView" : 1,
            "componentType" : 5126,
            "count" : 54,
            "type" : "VEC3"
        },
        {
            "bufferView" : 2,
            "componentType" : 5126,
            "count" : 54,
            "type" : "VEC2"
        },
        {
            "bufferView" : 3,
            "componentType" : 5123,
            "count" : 96,
            "type" : "SCALAR"
        },
        {
            "bufferView" : 4,
            "componentType" : 5126,
            "count" : 1777,
            "max" : [
                7.141707420349121,
                4.79472541809082,
                19.532184600830078
            ],
            "min" : [
                -7.141703128814697,
                -17.755714416503906,
                -19.44369125366211
            ],
            "type" : "VEC3"
        },
        {
            "bufferView" : 5,
            "componentType" : 5126,
            "count" : 1777,
            "type" : "VEC3"
        },
        {
            "bufferView" : 6,
            "componentType" : 5126,
            "count" : 1777,
            "type" : "VEC2"
        },
        {
            "bufferView" : 7,
            "componentType" : 5123,
            "count" : 2691,
            "type" : "SCALAR"
        },
        {
            "bufferView" : 8,
            "componentType" : 5126,
            "count" : 1245,
            "max" : [
                6.548050403594971,
                12.260151863098145,
                19.870290756225586
            ],
            "min" : [
                -5.661004066467285,
                -18.57755470275879,
                -19.781797409057617
            ],
            "type" : "VEC3"
        },
        {
            "bufferView" : 9,
            "componentType" : 5126,
            "count" : 1245,
            "type" : "VEC3"
        },
        {
            "bufferView" : 10,
            "componentType" : 5126,
            "count" : 1245,
            "type" : "VEC2"
        },
        {
            "bufferView" : 11,
            "componentType" : 5123,
            "count" : 2301,
            "type" : "SCALAR"
        },
        {
            "bufferView" : 12,
            "componentType" : 5126,
            "count" : 1288,
            "max" : [
                7.141707420349121,
                4.79472541809082,
                7.141706466674805
            ],
            "min" : [
                -7.141703128814697,
                -17.653553009033203,
                -7.141698360443115
            ],
            "type" : "VEC3"
        },
        {
            "bufferView" : 13,
            "componentType" : 5126,
            "count" : 1288,
            "type" : "VEC3"
        },
        {
            "bufferView" : 14,
            "componentType" : 5126,
            "count" : 1288,
            "type" : "VEC2"
        },
        {
            "bufferView" : 15,
            "componentType" : 5123,
            "count" : 1836,
            "type" : "SCALAR"
        },
        {
            "bufferView" : 16,
            "componentType" : 5126,
            "count" : 130,
            "max" : [
                1.011371374130249,
                0.9871435165405273,
                19.532184600830078
            ],
            "min" : [
                -1.01137113571167,
                -17.653553009033203,
                -19.44369125366211
            ],
            "type" : "VEC3"
        },
        {
            "bufferView" : 17,
            "componentType" : 5126,
            "count" : 130,
            "type" : "VEC3"
        },
        {
            "bufferView" : 18,
            "componentType" : 5126,
            "count" : 130,
            "type" : "VEC2"
        },
        {
            "bufferView" : 19,
            "componentType" : 5123,
            "count" : 222,
            "type" : "SCALAR"
        },
        {
            "bufferView" : 20,
            "componentType" : 5126,
            "count" : 1984,
            "max" : [
                0.5946515798568726,
                13.187381744384766,
                0.5946524143218994
            ],
            "min" : [
                -0.594649612903595,
                11.99808120727539,
                -0.5946489572525024
            ],
            "type" : "VEC3"
        },
        {
            "bufferView" : 21,
            "componentType" : 5126,
            "count" : 1984,
            "type" : "VEC3"
        },
        {
            "bufferView" : 22,
            "componentType" : 5126,
            "count" : 1984,
            "type" : "VEC2"
        },
        {
            "bufferView" : 23,
            "componentType" : 5123,
            "count" : 2880,
            "type" : "SCALAR"
        }
    ],
    "bufferViews" : [
        {
            "buffer" : 0,
            "byteLength" : 648,
            "byteOffset" : 0
        },
        {
            "buffer" : 0,
            "byteLength" : 648,
            "byteOffset" : 648
        },
        {
            "buffer" : 0,
            "byteLength" : 432,
            "byteOffset" : 1296
        },
        {
            "buffer" : 0,
            "byteLength" : 192,
            "byteOffset" : 1728
        },
        {
            "buffer" : 0,
            "byteLength" : 21324,
            "byteOffset" : 1920
        },
        {
            "buffer" : 0,
            "byteLength" : 21324,
            "byteOffset" : 23244
        },
        {
            "buffer" : 0,
            "byteLength" : 14216,
            "byteOffset" : 44568
        },
        {
            "buffer" : 0,
            "byteLength" : 5382,
            "byteOffset" : 58784
        },
        {
            "buffer" : 0,
            "byteLength" : 14940,
            "byteOffset" : 64168
        },
        {
            "buffer" : 0,
            "byteLength" : 14940,
            "byteOffset" : 79108
        },
        {
            "buffer" : 0,
            "byteLength" : 9960,
            "byteOffset" : 94048
        },
        {
            "buffer" : 0,
            "byteLength" : 4602,
            "byteOffset" : 104008
        },
        {
            "buffer" : 0,
            "byteLength" : 15456,
            "byteOffset" : 108612
        },
        {
            "buffer" : 0,
            "byteLength" : 15456,
            "byteOffset" : 124068
        },
        {
            "buffer" : 0,
            "byteLength" : 10304,
            "byteOffset" : 139524
        },
        {
            "buffer" : 0,
            "byteLength" : 3672,
            "byteOffset" : 149828
        },
        {
            "buffer" : 0,
            "byteLength" : 1560,
            "byteOffset" : 153500
        },
        {
            "buffer" : 0,
            "byteLength" : 1560,
            "byteOffset" : 155060
        },
        {
            "buffer" : 0,
            "byteLength" : 1040,
            "byteOffset" : 156620
        },
        {
            "buffer" : 0,
            "byteLength" : 444,
            "byteOffset" : 157660
        },
        {
            "buffer" : 0,
            "byteLength" : 23808,
            "byteOffset" : 158104
        },
        {
            "buffer" : 0,
            "byteLength" : 23808,
            "byteOffset" : 181912
        },
        {
            "buffer" : 0,
            "byteLength" : 15872,
            "byteOffset" : 205720
        },
        {
            "buffer" : 0,
            "byteLength" : 5760,
            "byteOffset" : 221592
        }
    ],
    "buffers" : [
        {
            "byteLength" : 227352,
            "uri" : "palidov.bin"
        }
    ]
}
