{
    "asset" : {
        "generator" : "Khronos glTF Blender I/O v1.3.48",
        "version" : "2.0"
    },
    "scene" : 0,
    "scenes" : [
        {
            "name" : "Scene",
            "nodes" : [
                0,
                1,
                2,
                3,
                4,
                5,
                6
            ]
        }
    ],
    "nodes" : [
        {
            "mesh" : 0,
            "name" : "Cube"
        },
        {
            "mesh" : 1,
            "name" : "kitm",
            "rotation" : [
                0.5,
                0.4999999403953552,
                -0.4999999403953552,
                0.5000000596046448
            ],
            "scale" : [
                2.6009533405303955,
                2.6009533405303955,
                2.6009533405303955
            ],
            "translation" : [
                1.043064832687378,
                0.14219798147678375,
                0
            ]
        },
        {
            "mesh" : 2,
            "name" : "Cube.001"
        },
        {
            "mesh" : 3,
            "name" : "Cube.002"
        },
        {
            "mesh" : 4,
            "name" : "Cube.003"
        },
        {
            "mesh" : 5,
            "name" : "Cube.004"
        },
        {
            "mesh" : 6,
            "name" : "Cube.005"
        }
    ],
    "materials" : [
        {
            "doubleSided" : true,
            "emissiveFactor" : [
                0,
                0,
                0
            ],
            "name" : "Material.001",
            "pbrMetallicRoughness" : {
                "baseColorFactor" : [
                    1,
                    1,
                    1,
                    1
                ],
                "metallicFactor" : 0,
                "roughnessFactor" : 0.4000000059604645
            }
        },
        {
            "alphaMode" : "BLEND",
            "doubleSided" : true,
            "emissiveFactor" : [
                0,
                0,
                0
            ],
            "name" : "kitm",
            "pbrMetallicRoughness" : {
                "baseColorTexture" : {
                    "index" : 0,
                    "texCoord" : 0
                },
                "metallicFactor" : 0,
                "roughnessFactor" : 0.5
            }
        }
    ],
    "meshes" : [
        {
            "name" : "Cube.001",
            "primitives" : [
                {
                    "attributes" : {
                        "POSITION" : 0,
                        "NORMAL" : 1,
                        "TEXCOORD_0" : 2
                    },
                    "indices" : 3,
                    "material" : 0
                }
            ]
        },
        {
            "name" : "kitm",
            "primitives" : [
                {
                    "attributes" : {
                        "POSITION" : 4,
                        "NORMAL" : 5,
                        "TEXCOORD_0" : 6
                    },
                    "indices" : 7,
                    "material" : 1
                }
            ]
        },
        {
            "name" : "Cube.002",
            "primitives" : [
                {
                    "attributes" : {
                        "POSITION" : 8,
                        "NORMAL" : 9,
                        "TEXCOORD_0" : 10
                    },
                    "indices" : 11,
                    "material" : 0
                }
            ]
        },
        {
            "name" : "Cube.003",
            "primitives" : [
                {
                    "attributes" : {
                        "POSITION" : 12,
                        "NORMAL" : 13,
                        "TEXCOORD_0" : 14
                    },
                    "indices" : 15,
                    "material" : 0
                }
            ]
        },
        {
            "name" : "Cube.004",
            "primitives" : [
                {
                    "attributes" : {
                        "POSITION" : 16,
                        "NORMAL" : 17,
                        "TEXCOORD_0" : 18
                    },
                    "indices" : 19,
                    "material" : 0
                }
            ]
        },
        {
            "name" : "Cube.005",
            "primitives" : [
                {
                    "attributes" : {
                        "POSITION" : 20,
                        "NORMAL" : 21,
                        "TEXCOORD_0" : 22
                    },
                    "indices" : 23,
                    "material" : 0
                }
            ]
        },
        {
            "name" : "Cube.006",
            "primitives" : [
                {
                    "attributes" : {
                        "POSITION" : 24,
                        "NORMAL" : 25,
                        "TEXCOORD_0" : 26
                    },
                    "indices" : 27,
                    "material" : 0
                }
            ]
        }
    ],
    "textures" : [
        {
            "source" : 0
        }
    ],
    "images" : [
        {
            "mimeType" : "image/png",
            "name" : "kitm1",
            "uri" : "kitm1.png"
        }
    ],
    "accessors" : [
        {
            "bufferView" : 0,
            "componentType" : 5126,
            "count" : 14272,
            "max" : [
                1.0411454439163208,
                1.0000001192092896,
                1.0000001192092896
            ],
            "min" : [
                1.0411452054977417,
                -1.0000001192092896,
                -1.0000001192092896
            ],
            "type" : "VEC3"
        },
        {
            "bufferView" : 1,
            "componentType" : 5126,
            "count" : 14272,
            "type" : "VEC3"
        },
        {
            "bufferView" : 2,
            "componentType" : 5126,
            "count" : 14272,
            "type" : "VEC2"
        },
        {
            "bufferView" : 3,
            "componentType" : 5123,
            "count" : 24576,
            "type" : "SCALAR"
        },
        {
            "bufferView" : 4,
            "componentType" : 5126,
            "count" : 4,
            "max" : [
                0.6666666865348816,
                0,
                0.5
            ],
            "min" : [
                -0.6666666865348816,
                0,
                -0.5
            ],
            "type" : "VEC3"
        },
        {
            "bufferView" : 5,
            "componentType" : 5126,
            "count" : 4,
            "type" : "VEC3"
        },
        {
            "bufferView" : 6,
            "componentType" : 5126,
            "count" : 4,
            "type" : "VEC2"
        },
        {
            "bufferView" : 7,
            "componentType" : 5123,
            "count" : 6,
            "type" : "SCALAR"
        },
        {
            "bufferView" : 8,
            "componentType" : 5126,
            "count" : 15784,
            "max" : [
                1.0000001192092896,
                1.0000001192092896,
                1.0656300783157349
            ],
            "min" : [
                -1.0000001192092896,
                -1.0000001192092896,
                1.0656298398971558
            ],
            "type" : "VEC3"
        },
        {
            "bufferView" : 9,
            "componentType" : 5126,
            "count" : 15784,
            "type" : "VEC3"
        },
        {
            "bufferView" : 10,
            "componentType" : 5126,
            "count" : 15784,
            "type" : "VEC2"
        },
        {
            "bufferView" : 11,
            "componentType" : 5123,
            "count" : 24576,
            "type" : "SCALAR"
        },
        {
            "bufferView" : 12,
            "componentType" : 5126,
            "count" : 12618,
            "max" : [
                1.0000001192092896,
                1.031650424003601,
                1.0000001192092896
            ],
            "min" : [
                -1.0000001192092896,
                1.031650185585022,
                -1.0000001192092896
            ],
            "type" : "VEC3"
        },
        {
            "bufferView" : 13,
            "componentType" : 5126,
            "count" : 12618,
            "type" : "VEC3"
        },
        {
            "bufferView" : 14,
            "componentType" : 5126,
            "count" : 12618,
            "type" : "VEC2"
        },
        {
            "bufferView" : 15,
            "componentType" : 5123,
            "count" : 24576,
            "type" : "SCALAR"
        },
        {
            "bufferView" : 16,
            "componentType" : 5126,
            "count" : 15708,
            "max" : [
                1.0000001192092896,
                1.0000001192092896,
                -1.0410184860229492
            ],
            "min" : [
                -1.0000001192092896,
                -1.0000001192092896,
                -1.0410187244415283
            ],
            "type" : "VEC3"
        },
        {
            "bufferView" : 17,
            "componentType" : 5126,
            "count" : 15708,
            "type" : "VEC3"
        },
        {
            "bufferView" : 18,
            "componentType" : 5126,
            "count" : 15708,
            "type" : "VEC2"
        },
        {
            "bufferView" : 19,
            "componentType" : 5123,
            "count" : 24576,
            "type" : "SCALAR"
        },
        {
            "bufferView" : 20,
            "componentType" : 5126,
            "count" : 15914,
            "max" : [
                1.0000001192092896,
                -1.0474753379821777,
                1.0000001192092896
            ],
            "min" : [
                -1.0000001192092896,
                -1.0474755764007568,
                -1.0000001192092896
            ],
            "type" : "VEC3"
        },
        {
            "bufferView" : 21,
            "componentType" : 5126,
            "count" : 15914,
            "type" : "VEC3"
        },
        {
            "bufferView" : 22,
            "componentType" : 5126,
            "count" : 15914,
            "type" : "VEC2"
        },
        {
            "bufferView" : 23,
            "componentType" : 5123,
            "count" : 24576,
            "type" : "SCALAR"
        },
        {
            "bufferView" : 24,
            "componentType" : 5126,
            "count" : 14823,
            "max" : [
                -1.0527503490447998,
                1.0000001192092896,
                1.0000001192092896
            ],
            "min" : [
                -1.052750587463379,
                -1.0000001192092896,
                -1.0000001192092896
            ],
            "type" : "VEC3"
        },
        {
            "bufferView" : 25,
            "componentType" : 5126,
            "count" : 14823,
            "type" : "VEC3"
        },
        {
            "bufferView" : 26,
            "componentType" : 5126,
            "count" : 14823,
            "type" : "VEC2"
        },
        {
            "bufferView" : 27,
            "componentType" : 5123,
            "count" : 24576,
            "type" : "SCALAR"
        }
    ],
    "bufferViews" : [
        {
            "buffer" : 0,
            "byteLength" : 171264,
            "byteOffset" : 0
        },
        {
            "buffer" : 0,
            "byteLength" : 171264,
            "byteOffset" : 171264
        },
        {
            "buffer" : 0,
            "byteLength" : 114176,
            "byteOffset" : 342528
        },
        {
            "buffer" : 0,
            "byteLength" : 49152,
            "byteOffset" : 456704
        },
        {
            "buffer" : 0,
            "byteLength" : 48,
            "byteOffset" : 505856
        },
        {
            "buffer" : 0,
            "byteLength" : 48,
            "byteOffset" : 505904
        },
        {
            "buffer" : 0,
            "byteLength" : 32,
            "byteOffset" : 505952
        },
        {
            "buffer" : 0,
            "byteLength" : 12,
            "byteOffset" : 505984
        },
        {
            "buffer" : 0,
            "byteLength" : 189408,
            "byteOffset" : 505996
        },
        {
            "buffer" : 0,
            "byteLength" : 189408,
            "byteOffset" : 695404
        },
        {
            "buffer" : 0,
            "byteLength" : 126272,
            "byteOffset" : 884812
        },
        {
            "buffer" : 0,
            "byteLength" : 49152,
            "byteOffset" : 1011084
        },
        {
            "buffer" : 0,
            "byteLength" : 151416,
            "byteOffset" : 1060236
        },
        {
            "buffer" : 0,
            "byteLength" : 151416,
            "byteOffset" : 1211652
        },
        {
            "buffer" : 0,
            "byteLength" : 100944,
            "byteOffset" : 1363068
        },
        {
            "buffer" : 0,
            "byteLength" : 49152,
            "byteOffset" : 1464012
        },
        {
            "buffer" : 0,
            "byteLength" : 188496,
            "byteOffset" : 1513164
        },
        {
            "buffer" : 0,
            "byteLength" : 188496,
            "byteOffset" : 1701660
        },
        {
            "buffer" : 0,
            "byteLength" : 125664,
            "byteOffset" : 1890156
        },
        {
            "buffer" : 0,
            "byteLength" : 49152,
            "byteOffset" : 2015820
        },
        {
            "buffer" : 0,
            "byteLength" : 190968,
            "byteOffset" : 2064972
        },
        {
            "buffer" : 0,
            "byteLength" : 190968,
            "byteOffset" : 2255940
        },
        {
            "buffer" : 0,
            "byteLength" : 127312,
            "byteOffset" : 2446908
        },
        {
            "buffer" : 0,
            "byteLength" : 49152,
            "byteOffset" : 2574220
        },
        {
            "buffer" : 0,
            "byteLength" : 177876,
            "byteOffset" : 2623372
        },
        {
            "buffer" : 0,
            "byteLength" : 177876,
            "byteOffset" : 2801248
        },
        {
            "buffer" : 0,
            "byteLength" : 118584,
            "byteOffset" : 2979124
        },
        {
            "buffer" : 0,
            "byteLength" : 49152,
            "byteOffset" : 3097708
        }
    ],
    "buffers" : [
        {
            "byteLength" : 3146860,
            "uri" : "pineapple.bin"
        }
    ]
}
