{
    "asset" : {
        "generator" : "Khronos glTF Blender I/O v1.3.48",
        "version" : "2.0"
    },
    "scene" : 0,
    "scenes" : [
        {
            "name" : "Scene",
            "nodes" : [
                0
            ]
        }
    ],
    "nodes" : [
        {
            "mesh" : 0,
            "name" : "SATALITE",
            "rotation" : [
                0.7071068286895752,
                0,
                0,
                -0.7071068286895752
            ],
            "scale" : [
                0.016333185136318207,
                0.016333185136318207,
                0.016333185136318207
            ],
            "translation" : [
                0,
                -1.878715991973877,
                0.7032076120376587
            ]
        }
    ],
    "materials" : [
        {
            "doubleSided" : true,
            "emissiveFactor" : [
                0,
                0,
                0
            ],
            "name" : "Material.001",
            "pbrMetallicRoughness" : {
                "baseColorFactor" : [
                    0.39311447739601135,
                    0.39311447739601135,
                    0.39311447739601135,
                    1
                ],
                "metallicFactor" : 0,
                "roughnessFactor" : 0.5
            }
        },
        {
            "doubleSided" : true,
            "emissiveFactor" : [
                0,
                0,
                0
            ],
            "name" : "Material.005",
            "pbrMetallicRoughness" : {
                "baseColorFactor" : [
                    0.5070686936378479,
                    0.5070686936378479,
                    0.5070686936378479,
                    1
                ],
                "metallicFactor" : 0,
                "roughnessFactor" : 0.5
            }
        },
        {
            "doubleSided" : true,
            "emissiveFactor" : [
                0,
                0,
                0
            ],
            "name" : "Material.003",
            "pbrMetallicRoughness" : {
                "baseColorFactor" : [
                    0.2161431461572647,
                    0.40031880140304565,
                    0.6866856217384338,
                    1
                ],
                "metallicFactor" : 0,
                "roughnessFactor" : 0.5
            }
        },
        {
            "doubleSided" : true,
            "emissiveFactor" : [
                0,
                0,
                0
            ],
            "name" : "Material.002",
            "pbrMetallicRoughness" : {
                "baseColorFactor" : [
                    0.012216928415000439,
                    0.012216928415000439,
                    0.012216928415000439,
                    1
                ],
                "metallicFactor" : 0,
                "roughnessFactor" : 0.5
            }
        },
        {
            "doubleSided" : true,
            "emissiveFactor" : [
                0,
                0,
                0
            ],
            "name" : "Material.004",
            "pbrMetallicRoughness" : {
                "baseColorFactor" : [
                    0.800000011920929,
                    0.800000011920929,
                    0.800000011920929,
                    1
                ],
                "metallicFactor" : 0,
                "roughnessFactor" : 0.5
            }
        },
        {
            "doubleSided" : true,
            "emissiveFactor" : [
                0,
                0,
                0
            ],
            "name" : "Material",
            "pbrMetallicRoughness" : {
                "baseColorFactor" : [
                    1,
                    1,
                    1,
                    1
                ],
                "metallicFactor" : 0,
                "roughnessFactor" : 0.4000000059604645
            }
        }
    ],
    "meshes" : [
        {
            "name" : "SATALITE",
            "primitives" : [
                {
                    "attributes" : {
                        "POSITION" : 0,
                        "NORMAL" : 1,
                        "TEXCOORD_0" : 2
                    },
                    "indices" : 3,
                    "material" : 0
                },
                {
                    "attributes" : {
                        "POSITION" : 4,
                        "NORMAL" : 5,
                        "TEXCOORD_0" : 6
                    },
                    "indices" : 7,
                    "material" : 1
                },
                {
                    "attributes" : {
                        "POSITION" : 8,
                        "NORMAL" : 9,
                        "TEXCOORD_0" : 10
                    },
                    "indices" : 11,
                    "material" : 2
                },
                {
                    "attributes" : {
                        "POSITION" : 12,
                        "NORMAL" : 13,
                        "TEXCOORD_0" : 14
                    },
                    "indices" : 15,
                    "material" : 3
                },
                {
                    "attributes" : {
                        "POSITION" : 16,
                        "NORMAL" : 17,
                        "TEXCOORD_0" : 18
                    },
                    "indices" : 19,
                    "material" : 4
                },
                {
                    "attributes" : {
                        "POSITION" : 20,
                        "NORMAL" : 21,
                        "TEXCOORD_0" : 22
                    },
                    "indices" : 23,
                    "material" : 5
                }
            ]
        }
    ],
    "accessors" : [
        {
            "bufferView" : 0,
            "componentType" : 5126,
            "count" : 1249,
            "max" : [
                46.675113677978516,
                184.06045532226562,
                135.7775115966797
            ],
            "min" : [
                -40.352169036865234,
                -98.58341979980469,
                -84.03656768798828
            ],
            "type" : "VEC3"
        },
        {
            "bufferView" : 1,
            "componentType" : 5126,
            "count" : 1249,
            "type" : "VEC3"
        },
        {
            "bufferView" : 2,
            "componentType" : 5126,
            "count" : 1249,
            "type" : "VEC2"
        },
        {
            "bufferView" : 3,
            "componentType" : 5123,
            "count" : 2301,
            "type" : "SCALAR"
        },
        {
            "bufferView" : 4,
            "componentType" : 5126,
            "count" : 1288,
            "max" : [
                50.906761169433594,
                93.96061706542969,
                82.56327056884766
            ],
            "min" : [
                -50.90672302246094,
                -7.852836608886719,
                -77.45018768310547
            ],
            "type" : "VEC3"
        },
        {
            "bufferView" : 5,
            "componentType" : 5126,
            "count" : 1288,
            "type" : "VEC3"
        },
        {
            "bufferView" : 6,
            "componentType" : 5126,
            "count" : 1288,
            "type" : "VEC2"
        },
        {
            "bufferView" : 7,
            "componentType" : 5123,
            "count" : 1836,
            "type" : "SCALAR"
        },
        {
            "bufferView" : 8,
            "componentType" : 5126,
            "count" : 395,
            "max" : [
                50.906761169433594,
                181.650390625,
                82.56327056884766
            ],
            "min" : [
                -50.90672302246094,
                -96.1733169555664,
                -78.17839813232422
            ],
            "type" : "VEC3"
        },
        {
            "bufferView" : 9,
            "componentType" : 5126,
            "count" : 395,
            "type" : "VEC3"
        },
        {
            "bufferView" : 10,
            "componentType" : 5126,
            "count" : 395,
            "type" : "VEC2"
        },
        {
            "bufferView" : 11,
            "componentType" : 5123,
            "count" : 603,
            "type" : "SCALAR"
        },
        {
            "bufferView" : 12,
            "componentType" : 5126,
            "count" : 1984,
            "max" : [
                4.23873233795166,
                47.29263687133789,
                142.38690185546875
            ],
            "min" : [
                -4.238717555999756,
                38.815185546875,
                133.90943908691406
            ],
            "type" : "VEC3"
        },
        {
            "bufferView" : 13,
            "componentType" : 5126,
            "count" : 1984,
            "type" : "VEC3"
        },
        {
            "bufferView" : 14,
            "componentType" : 5126,
            "count" : 1984,
            "type" : "VEC2"
        },
        {
            "bufferView" : 15,
            "componentType" : 5123,
            "count" : 2880,
            "type" : "SCALAR"
        },
        {
            "bufferView" : 16,
            "componentType" : 5126,
            "count" : 54,
            "max" : [
                7.019803047180176,
                50.18201446533203,
                55.51409912109375
            ],
            "min" : [
                -7.019800662994385,
                36.35570526123047,
                41.257911682128906
            ],
            "type" : "VEC3"
        },
        {
            "bufferView" : 17,
            "componentType" : 5126,
            "count" : 54,
            "type" : "VEC3"
        },
        {
            "bufferView" : 18,
            "componentType" : 5126,
            "count" : 54,
            "type" : "VEC2"
        },
        {
            "bufferView" : 19,
            "componentType" : 5123,
            "count" : 96,
            "type" : "SCALAR"
        },
        {
            "bufferView" : 20,
            "componentType" : 5126,
            "count" : 130,
            "max" : [
                7.209150314331055,
                181.65037536621094,
                55.42245101928711
            ],
            "min" : [
                -7.209148406982422,
                -96.1733169555664,
                -77.45018768310547
            ],
            "type" : "VEC3"
        },
        {
            "bufferView" : 21,
            "componentType" : 5126,
            "count" : 130,
            "type" : "VEC3"
        },
        {
            "bufferView" : 22,
            "componentType" : 5126,
            "count" : 130,
            "type" : "VEC2"
        },
        {
            "bufferView" : 23,
            "componentType" : 5123,
            "count" : 222,
            "type" : "SCALAR"
        }
    ],
    "bufferViews" : [
        {
            "buffer" : 0,
            "byteLength" : 14988,
            "byteOffset" : 0
        },
        {
            "buffer" : 0,
            "byteLength" : 14988,
            "byteOffset" : 14988
        },
        {
            "buffer" : 0,
            "byteLength" : 9992,
            "byteOffset" : 29976
        },
        {
            "buffer" : 0,
            "byteLength" : 4602,
            "byteOffset" : 39968
        },
        {
            "buffer" : 0,
            "byteLength" : 15456,
            "byteOffset" : 44572
        },
        {
            "buffer" : 0,
            "byteLength" : 15456,
            "byteOffset" : 60028
        },
        {
            "buffer" : 0,
            "byteLength" : 10304,
            "byteOffset" : 75484
        },
        {
            "buffer" : 0,
            "byteLength" : 3672,
            "byteOffset" : 85788
        },
        {
            "buffer" : 0,
            "byteLength" : 4740,
            "byteOffset" : 89460
        },
        {
            "buffer" : 0,
            "byteLength" : 4740,
            "byteOffset" : 94200
        },
        {
            "buffer" : 0,
            "byteLength" : 3160,
            "byteOffset" : 98940
        },
        {
            "buffer" : 0,
            "byteLength" : 1206,
            "byteOffset" : 102100
        },
        {
            "buffer" : 0,
            "byteLength" : 23808,
            "byteOffset" : 103308
        },
        {
            "buffer" : 0,
            "byteLength" : 23808,
            "byteOffset" : 127116
        },
        {
            "buffer" : 0,
            "byteLength" : 15872,
            "byteOffset" : 150924
        },
        {
            "buffer" : 0,
            "byteLength" : 5760,
            "byteOffset" : 166796
        },
        {
            "buffer" : 0,
            "byteLength" : 648,
            "byteOffset" : 172556
        },
        {
            "buffer" : 0,
            "byteLength" : 648,
            "byteOffset" : 173204
        },
        {
            "buffer" : 0,
            "byteLength" : 432,
            "byteOffset" : 173852
        },
        {
            "buffer" : 0,
            "byteLength" : 192,
            "byteOffset" : 174284
        },
        {
            "buffer" : 0,
            "byteLength" : 1560,
            "byteOffset" : 174476
        },
        {
            "buffer" : 0,
            "byteLength" : 1560,
            "byteOffset" : 176036
        },
        {
            "buffer" : 0,
            "byteLength" : 1040,
            "byteOffset" : 177596
        },
        {
            "buffer" : 0,
            "byteLength" : 444,
            "byteOffset" : 178636
        }
    ],
    "buffers" : [
        {
            "byteLength" : 179080,
            "uri" : "SATALITAS.bin"
        }
    ]
}
