{
    "asset" : {
        "generator" : "Khronos glTF Blender I/O v1.3.48",
        "version" : "2.0"
    },
    "scene" : 0,
    "scenes" : [
        {
            "name" : "Scene",
            "nodes" : [
                0
            ]
        }
    ],
    "nodes" : [
        {
            "mesh" : 0,
            "name" : "veidrodis",
            "scale" : [
                4.10760498046875,
                4.10760498046875,
                4.10760498046875
            ],
            "translation" : [
                0.34546974301338196,
                -0.05103953182697296,
                1.4746501445770264
            ]
        }
    ],
    "materials" : [
        {
            "doubleSided" : true,
            "emissiveFactor" : [
                0,
                0,
                0
            ],
            "name" : "Material.003",
            "pbrMetallicRoughness" : {
                "baseColorFactor" : [
                    0.800000011920929,
                    0.800000011920929,
                    0.800000011920929,
                    1
                ],
                "metallicFactor" : 0,
                "roughnessFactor" : 0.5
            }
        },
        {
            "doubleSided" : true,
            "emissiveFactor" : [
                0,
                0,
                0
            ],
            "name" : "Material.004",
            "pbrMetallicRoughness" : {
                "baseColorFactor" : [
                    0.830769956111908,
                    0.4969329237937927,
                    0.09989877045154572,
                    1
                ],
                "metallicFactor" : 0,
                "roughnessFactor" : 0.5
            }
        },
        {
            "doubleSided" : true,
            "emissiveFactor" : [
                0,
                0,
                0
            ],
            "name" : "Material.001",
            "pbrMetallicRoughness" : {
                "baseColorFactor" : [
                    1,
                    1,
                    1,
                    1
                ],
                "metallicFactor" : 0,
                "roughnessFactor" : 0.5
            }
        },
        {
            "doubleSided" : true,
            "emissiveFactor" : [
                0,
                0,
                0
            ],
            "name" : "Material.009",
            "pbrMetallicRoughness" : {
                "baseColorFactor" : [
                    0.11927590519189835,
                    0.11927590519189835,
                    0.11927590519189835,
                    1
                ],
                "metallicFactor" : 0,
                "roughnessFactor" : 0.5
            }
        },
        {
            "doubleSided" : true,
            "emissiveFactor" : [
                0,
                0,
                0
            ],
            "name" : "Material.008",
            "pbrMetallicRoughness" : {
                "baseColorFactor" : [
                    0.6500054597854614,
                    0.3902367651462555,
                    0.07985150814056396,
                    1
                ],
                "metallicFactor" : 0,
                "roughnessFactor" : 0.5
            }
        },
        {
            "doubleSided" : true,
            "emissiveFactor" : [
                0,
                0,
                0
            ],
            "name" : "Blue",
            "pbrMetallicRoughness" : {
                "baseColorFactor" : [
                    0.17464745044708252,
                    0.5906190276145935,
                    0.8713672757148743,
                    1
                ],
                "metallicFactor" : 1,
                "roughnessFactor" : 0
            }
        },
        {
            "doubleSided" : true,
            "emissiveFactor" : [
                0,
                0,
                0
            ],
            "name" : "Material.006",
            "pbrMetallicRoughness" : {
                "baseColorFactor" : [
                    0.6266627311706543,
                    0.6266627311706543,
                    0.6266627311706543,
                    1
                ],
                "metallicFactor" : 0,
                "roughnessFactor" : 0.5
            }
        }
    ],
    "meshes" : [
        {
            "name" : "veidrodis",
            "primitives" : [
                {
                    "attributes" : {
                        "POSITION" : 0,
                        "NORMAL" : 1,
                        "TEXCOORD_0" : 2
                    },
                    "indices" : 3,
                    "material" : 0
                },
                {
                    "attributes" : {
                        "POSITION" : 4,
                        "NORMAL" : 5,
                        "TEXCOORD_0" : 6
                    },
                    "indices" : 7,
                    "material" : 1
                },
                {
                    "attributes" : {
                        "POSITION" : 8,
                        "NORMAL" : 9,
                        "TEXCOORD_0" : 10
                    },
                    "indices" : 11,
                    "material" : 2
                },
                {
                    "attributes" : {
                        "POSITION" : 12,
                        "NORMAL" : 13,
                        "TEXCOORD_0" : 14
                    },
                    "indices" : 15,
                    "material" : 3
                },
                {
                    "attributes" : {
                        "POSITION" : 16,
                        "NORMAL" : 17,
                        "TEXCOORD_0" : 18
                    },
                    "indices" : 19,
                    "material" : 4
                },
                {
                    "attributes" : {
                        "POSITION" : 20,
                        "NORMAL" : 21,
                        "TEXCOORD_0" : 22
                    },
                    "indices" : 23,
                    "material" : 5
                },
                {
                    "attributes" : {
                        "POSITION" : 24,
                        "NORMAL" : 25,
                        "TEXCOORD_0" : 26
                    },
                    "indices" : 27,
                    "material" : 6
                }
            ]
        }
    ],
    "accessors" : [
        {
            "bufferView" : 0,
            "componentType" : 5126,
            "count" : 240,
            "max" : [
                0.010637175291776657,
                0.2990046739578247,
                0.0027080103754997253
            ],
            "min" : [
                -0.10375605523586273,
                0.10576668381690979,
                -0.06326666474342346
            ],
            "type" : "VEC3"
        },
        {
            "bufferView" : 1,
            "componentType" : 5126,
            "count" : 240,
            "type" : "VEC3"
        },
        {
            "bufferView" : 2,
            "componentType" : 5126,
            "count" : 240,
            "type" : "VEC2"
        },
        {
            "bufferView" : 3,
            "componentType" : 5123,
            "count" : 360,
            "type" : "SCALAR"
        },
        {
            "bufferView" : 4,
            "componentType" : 5126,
            "count" : 396,
            "max" : [
                0.03137200325727463,
                0.2987416982650757,
                0.012407265603542328
            ],
            "min" : [
                -0.1294373869895935,
                0.11992421001195908,
                -0.06014343723654747
            ],
            "type" : "VEC3"
        },
        {
            "bufferView" : 5,
            "componentType" : 5126,
            "count" : 396,
            "type" : "VEC3"
        },
        {
            "bufferView" : 6,
            "componentType" : 5126,
            "count" : 396,
            "type" : "VEC2"
        },
        {
            "bufferView" : 7,
            "componentType" : 5123,
            "count" : 930,
            "type" : "SCALAR"
        },
        {
            "bufferView" : 8,
            "componentType" : 5126,
            "count" : 942,
            "max" : [
                0.06828149408102036,
                0.4256632626056671,
                0.012194545939564705
            ],
            "min" : [
                -0.16634687781333923,
                0.013149797916412354,
                -0.11434195935726166
            ],
            "type" : "VEC3"
        },
        {
            "bufferView" : 9,
            "componentType" : 5126,
            "count" : 942,
            "type" : "VEC3"
        },
        {
            "bufferView" : 10,
            "componentType" : 5126,
            "count" : 942,
            "type" : "VEC2"
        },
        {
            "bufferView" : 11,
            "componentType" : 5123,
            "count" : 1716,
            "type" : "SCALAR"
        },
        {
            "bufferView" : 12,
            "componentType" : 5126,
            "count" : 1888,
            "max" : [
                0.07978213578462601,
                0.3795880079269409,
                0.010309010744094849
            ],
            "min" : [
                -0.17853298783302307,
                -0.017774222418665886,
                -0.10499321669340134
            ],
            "type" : "VEC3"
        },
        {
            "bufferView" : 13,
            "componentType" : 5126,
            "count" : 1888,
            "type" : "VEC3"
        },
        {
            "bufferView" : 14,
            "componentType" : 5126,
            "count" : 1888,
            "type" : "VEC2"
        },
        {
            "bufferView" : 15,
            "componentType" : 5123,
            "count" : 2790,
            "type" : "SCALAR"
        },
        {
            "bufferView" : 16,
            "componentType" : 5126,
            "count" : 1550,
            "max" : [
                0.03227197378873825,
                0.3001542091369629,
                0.012407265603542328
            ],
            "min" : [
                -0.13033735752105713,
                0.22546929121017456,
                -0.039381079375743866
            ],
            "type" : "VEC3"
        },
        {
            "bufferView" : 17,
            "componentType" : 5126,
            "count" : 1550,
            "type" : "VEC3"
        },
        {
            "bufferView" : 18,
            "componentType" : 5126,
            "count" : 1550,
            "type" : "VEC2"
        },
        {
            "bufferView" : 19,
            "componentType" : 5123,
            "count" : 2424,
            "type" : "SCALAR"
        },
        {
            "bufferView" : 20,
            "componentType" : 5126,
            "count" : 76,
            "max" : [
                0.00864914059638977,
                0.4154835641384125,
                0.03023614175617695
            ],
            "min" : [
                -0.09901518374681473,
                0.31452783942222595,
                -0.01147906668484211
            ],
            "type" : "VEC3"
        },
        {
            "bufferView" : 21,
            "componentType" : 5126,
            "count" : 76,
            "type" : "VEC3"
        },
        {
            "bufferView" : 22,
            "componentType" : 5126,
            "count" : 76,
            "type" : "VEC2"
        },
        {
            "bufferView" : 23,
            "componentType" : 5123,
            "count" : 153,
            "type" : "SCALAR"
        },
        {
            "bufferView" : 24,
            "componentType" : 5126,
            "count" : 418,
            "max" : [
                0.00933603011071682,
                0.2901482880115509,
                -0.06553931534290314
            ],
            "min" : [
                -0.1055951714515686,
                0.2071855664253235,
                -0.11486709862947464
            ],
            "type" : "VEC3"
        },
        {
            "bufferView" : 25,
            "componentType" : 5126,
            "count" : 418,
            "type" : "VEC3"
        },
        {
            "bufferView" : 26,
            "componentType" : 5126,
            "count" : 418,
            "type" : "VEC2"
        },
        {
            "bufferView" : 27,
            "componentType" : 5123,
            "count" : 750,
            "type" : "SCALAR"
        }
    ],
    "bufferViews" : [
        {
            "buffer" : 0,
            "byteLength" : 2880,
            "byteOffset" : 0
        },
        {
            "buffer" : 0,
            "byteLength" : 2880,
            "byteOffset" : 2880
        },
        {
            "buffer" : 0,
            "byteLength" : 1920,
            "byteOffset" : 5760
        },
        {
            "buffer" : 0,
            "byteLength" : 720,
            "byteOffset" : 7680
        },
        {
            "buffer" : 0,
            "byteLength" : 4752,
            "byteOffset" : 8400
        },
        {
            "buffer" : 0,
            "byteLength" : 4752,
            "byteOffset" : 13152
        },
        {
            "buffer" : 0,
            "byteLength" : 3168,
            "byteOffset" : 17904
        },
        {
            "buffer" : 0,
            "byteLength" : 1860,
            "byteOffset" : 21072
        },
        {
            "buffer" : 0,
            "byteLength" : 11304,
            "byteOffset" : 22932
        },
        {
            "buffer" : 0,
            "byteLength" : 11304,
            "byteOffset" : 34236
        },
        {
            "buffer" : 0,
            "byteLength" : 7536,
            "byteOffset" : 45540
        },
        {
            "buffer" : 0,
            "byteLength" : 3432,
            "byteOffset" : 53076
        },
        {
            "buffer" : 0,
            "byteLength" : 22656,
            "byteOffset" : 56508
        },
        {
            "buffer" : 0,
            "byteLength" : 22656,
            "byteOffset" : 79164
        },
        {
            "buffer" : 0,
            "byteLength" : 15104,
            "byteOffset" : 101820
        },
        {
            "buffer" : 0,
            "byteLength" : 5580,
            "byteOffset" : 116924
        },
        {
            "buffer" : 0,
            "byteLength" : 18600,
            "byteOffset" : 122504
        },
        {
            "buffer" : 0,
            "byteLength" : 18600,
            "byteOffset" : 141104
        },
        {
            "buffer" : 0,
            "byteLength" : 12400,
            "byteOffset" : 159704
        },
        {
            "buffer" : 0,
            "byteLength" : 4848,
            "byteOffset" : 172104
        },
        {
            "buffer" : 0,
            "byteLength" : 912,
            "byteOffset" : 176952
        },
        {
            "buffer" : 0,
            "byteLength" : 912,
            "byteOffset" : 177864
        },
        {
            "buffer" : 0,
            "byteLength" : 608,
            "byteOffset" : 178776
        },
        {
            "buffer" : 0,
            "byteLength" : 306,
            "byteOffset" : 179384
        },
        {
            "buffer" : 0,
            "byteLength" : 5016,
            "byteOffset" : 179692
        },
        {
            "buffer" : 0,
            "byteLength" : 5016,
            "byteOffset" : 184708
        },
        {
            "buffer" : 0,
            "byteLength" : 3344,
            "byteOffset" : 189724
        },
        {
            "buffer" : 0,
            "byteLength" : 1500,
            "byteOffset" : 193068
        }
    ],
    "buffers" : [
        {
            "byteLength" : 194568,
            "uri" : "veidrodis.bin"
        }
    ]
}
