{
    "asset" : {
        "generator" : "Khronos glTF Blender I/O v1.3.48",
        "version" : "2.0"
    },
    "scene" : 0,
    "scenes" : [
        {
            "name" : "Scene",
            "nodes" : [
                0
            ]
        }
    ],
    "nodes" : [
        {
            "mesh" : 0,
            "name" : "ZEME",
            "rotation" : [
                0.5556718111038208,
                0,
                0,
                0.8314017057418823
            ]
        }
    ],
    "materials" : [
        {
            "doubleSided" : true,
            "emissiveFactor" : [
                0,
                0,
                0
            ],
            "name" : "Green",
            "pbrMetallicRoughness" : {
                "baseColorFactor" : [
                    0.07818739116191864,
                    0.44520124793052673,
                    0.07421361654996872,
                    1
                ],
                "metallicFactor" : 1,
                "roughnessFactor" : 0.5527864098548889
            }
        },
        {
            "doubleSided" : true,
            "emissiveFactor" : [
                0,
                0,
                0
            ],
            "name" : "Blue",
            "pbrMetallicRoughness" : {
                "baseColorFactor" : [
                    0.17464745044708252,
                    0.5906190276145935,
                    0.8713672757148743,
                    1
                ],
                "metallicFactor" : 1,
                "roughnessFactor" : 0.5527864098548889
            }
        },
        {
            "doubleSided" : true,
            "emissiveFactor" : [
                0,
                0,
                0
            ],
            "name" : "Snow",
            "pbrMetallicRoughness" : {
                "baseColorFactor" : [
                    0.7409833073616028,
                    0.6845876574516296,
                    0.8000000715255737,
                    1
                ],
                "metallicFactor" : 1,
                "roughnessFactor" : 0.5527864098548889
            }
        },
        {
            "doubleSided" : true,
            "emissiveFactor" : [
                0,
                0,
                0
            ],
            "name" : "Brown",
            "pbrMetallicRoughness" : {
                "baseColorFactor" : [
                    0.800000011920929,
                    0.800000011920929,
                    0.800000011920929,
                    1
                ],
                "metallicFactor" : 1,
                "roughnessFactor" : 0.5527864098548889
            }
        },
        {
            "doubleSided" : true,
            "emissiveFactor" : [
                0,
                0,
                0
            ],
            "name" : "DarkGreen",
            "pbrMetallicRoughness" : {
                "baseColorFactor" : [
                    0.800000011920929,
                    0.800000011920929,
                    0.800000011920929,
                    1
                ],
                "metallicFactor" : 1,
                "roughnessFactor" : 0.5527864098548889
            }
        }
    ],
    "meshes" : [
        {
            "name" : "ZEME",
            "primitives" : [
                {
                    "attributes" : {
                        "POSITION" : 0,
                        "NORMAL" : 1
                    },
                    "indices" : 2,
                    "material" : 0
                },
                {
                    "attributes" : {
                        "POSITION" : 3,
                        "NORMAL" : 4
                    },
                    "indices" : 5,
                    "material" : 1
                },
                {
                    "attributes" : {
                        "POSITION" : 6,
                        "NORMAL" : 7
                    },
                    "indices" : 8,
                    "material" : 2
                },
                {
                    "attributes" : {
                        "POSITION" : 9,
                        "NORMAL" : 10
                    },
                    "indices" : 11,
                    "material" : 3
                },
                {
                    "attributes" : {
                        "POSITION" : 12,
                        "NORMAL" : 13
                    },
                    "indices" : 14,
                    "material" : 4
                }
            ]
        }
    ],
    "accessors" : [
        {
            "bufferView" : 0,
            "componentType" : 5126,
            "count" : 2031,
            "max" : [
                1.0678813457489014,
                1.0478670597076416,
                1.0560027360916138
            ],
            "min" : [
                -1.0605437755584717,
                -1.0557670593261719,
                -1.046486258506775
            ],
            "type" : "VEC3"
        },
        {
            "bufferView" : 1,
            "componentType" : 5126,
            "count" : 2031,
            "type" : "VEC3"
        },
        {
            "bufferView" : 2,
            "componentType" : 5123,
            "count" : 2379,
            "type" : "SCALAR"
        },
        {
            "bufferView" : 3,
            "componentType" : 5126,
            "count" : 2768,
            "max" : [
                1.0118989944458008,
                1.0138087272644043,
                0.9883021116256714
            ],
            "min" : [
                -0.9907025098800659,
                -0.9928650856018066,
                -1.0542151927947998
            ],
            "type" : "VEC3"
        },
        {
            "bufferView" : 4,
            "componentType" : 5126,
            "count" : 2768,
            "type" : "VEC3"
        },
        {
            "bufferView" : 5,
            "componentType" : 5123,
            "count" : 3414,
            "type" : "SCALAR"
        },
        {
            "bufferView" : 6,
            "componentType" : 5126,
            "count" : 309,
            "max" : [
                1.3478524684906006,
                0.5471853613853455,
                -0.2713589370250702
            ],
            "min" : [
                -0.2073155641555786,
                0.006460190750658512,
                -1.2499558925628662
            ],
            "type" : "VEC3"
        },
        {
            "bufferView" : 7,
            "componentType" : 5126,
            "count" : 309,
            "type" : "VEC3"
        },
        {
            "bufferView" : 8,
            "componentType" : 5123,
            "count" : 417,
            "type" : "SCALAR"
        },
        {
            "bufferView" : 9,
            "componentType" : 5126,
            "count" : 48,
            "max" : [
                1.3092917203903198,
                0.3103758692741394,
                -0.07900479435920715
            ],
            "min" : [
                1.0067455768585205,
                -0.01077926903963089,
                -0.4189438223838806
            ],
            "type" : "VEC3"
        },
        {
            "bufferView" : 10,
            "componentType" : 5126,
            "count" : 48,
            "type" : "VEC3"
        },
        {
            "bufferView" : 11,
            "componentType" : 5123,
            "count" : 72,
            "type" : "SCALAR"
        },
        {
            "bufferView" : 12,
            "componentType" : 5126,
            "count" : 24,
            "max" : [
                1.0899264812469482,
                0.3203938901424408,
                -0.0636613667011261
            ],
            "min" : [
                0.9772019982337952,
                -0.02735525742173195,
                -0.43071410059928894
            ],
            "type" : "VEC3"
        },
        {
            "bufferView" : 13,
            "componentType" : 5126,
            "count" : 24,
            "type" : "VEC3"
        },
        {
            "bufferView" : 14,
            "componentType" : 5123,
            "count" : 36,
            "type" : "SCALAR"
        }
    ],
    "bufferViews" : [
        {
            "buffer" : 0,
            "byteLength" : 24372,
            "byteOffset" : 0
        },
        {
            "buffer" : 0,
            "byteLength" : 24372,
            "byteOffset" : 24372
        },
        {
            "buffer" : 0,
            "byteLength" : 4758,
            "byteOffset" : 48744
        },
        {
            "buffer" : 0,
            "byteLength" : 33216,
            "byteOffset" : 53504
        },
        {
            "buffer" : 0,
            "byteLength" : 33216,
            "byteOffset" : 86720
        },
        {
            "buffer" : 0,
            "byteLength" : 6828,
            "byteOffset" : 119936
        },
        {
            "buffer" : 0,
            "byteLength" : 3708,
            "byteOffset" : 126764
        },
        {
            "buffer" : 0,
            "byteLength" : 3708,
            "byteOffset" : 130472
        },
        {
            "buffer" : 0,
            "byteLength" : 834,
            "byteOffset" : 134180
        },
        {
            "buffer" : 0,
            "byteLength" : 576,
            "byteOffset" : 135016
        },
        {
            "buffer" : 0,
            "byteLength" : 576,
            "byteOffset" : 135592
        },
        {
            "buffer" : 0,
            "byteLength" : 144,
            "byteOffset" : 136168
        },
        {
            "buffer" : 0,
            "byteLength" : 288,
            "byteOffset" : 136312
        },
        {
            "buffer" : 0,
            "byteLength" : 288,
            "byteOffset" : 136600
        },
        {
            "buffer" : 0,
            "byteLength" : 72,
            "byteOffset" : 136888
        }
    ],
    "buffers" : [
        {
            "byteLength" : 136960,
            "uri" : "ZEME.bin"
        }
    ]
}
